<mxfile host="app.diagrams.net" modified="2022-01-24T16:54:25.743Z" agent="5.0 (Windows NT 10.0; Win64; x64) AppleWebKit/537.36 (KHTML, like Gecko) Chrome/97.0.4692.71 Safari/537.36 OPR/83.0.4254.19" etag="1CTdF_S80jqwDzP3vxb8" version="16.4.5" type="github">
  <diagram id="vh4LzMmaLrvV3J_B-Y8Z" name="Page-1">
    <mxGraphModel dx="998" dy="1648" grid="1" gridSize="10" guides="1" tooltips="1" connect="1" arrows="1" fold="1" page="1" pageScale="1" pageWidth="850" pageHeight="1100" math="0" shadow="0">
      <root>
        <mxCell id="0" />
        <mxCell id="1" parent="0" />
        <mxCell id="g_Fo491Jodc6aMjxL6Fi-1" value="Members" style="rounded=0;whiteSpace=wrap;html=1;fillColor=#f5f5f5;fontColor=#333333;strokeColor=#666666;" vertex="1" parent="1">
          <mxGeometry x="180" y="230" width="120" height="60" as="geometry" />
        </mxCell>
        <mxCell id="g_Fo491Jodc6aMjxL6Fi-2" value="&lt;u&gt;Identification&lt;/u&gt;" style="ellipse;whiteSpace=wrap;html=1;fillColor=#dae8fc;strokeColor=#6c8ebf;" vertex="1" parent="1">
          <mxGeometry x="180" y="120" width="120" height="80" as="geometry" />
        </mxCell>
        <mxCell id="g_Fo491Jodc6aMjxL6Fi-3" value="E-mail Address" style="ellipse;whiteSpace=wrap;html=1;" vertex="1" parent="1">
          <mxGeometry x="70" y="-10" width="120" height="80" as="geometry" />
        </mxCell>
        <mxCell id="g_Fo491Jodc6aMjxL6Fi-4" value="Name" style="ellipse;whiteSpace=wrap;html=1;" vertex="1" parent="1">
          <mxGeometry x="240" width="120" height="80" as="geometry" />
        </mxCell>
      </root>
    </mxGraphModel>
  </diagram>
</mxfile>
